<?xml version="1.0" encoding="UTF-8" standalone="no"?>
<svg
   xmlns:bx="https://boxy-svg.com"
   xmlns:dc="http://purl.org/dc/elements/1.1/"
   xmlns:cc="http://creativecommons.org/ns#"
   xmlns:rdf="http://www.w3.org/1999/02/22-rdf-syntax-ns#"
   xmlns:svg="http://www.w3.org/2000/svg"
   xmlns="http://www.w3.org/2000/svg"
   id="svg7"
   version="1.1"
   height="256px"
   width="256px"
   viewBox="0 0 500 500">
  <metadata
     id="metadata18">
    <rdf:RDF>
      <cc:Work
         rdf:about="">
        <dc:format>image/svg+xml</dc:format>
        <dc:type
           rdf:resource="http://purl.org/dc/dcmitype/StillImage" />
        <dc:title></dc:title>
      </cc:Work>
    </rdf:RDF>
  </metadata>
  <defs
     id="defs7" />
  <g
     style="display:inline;opacity:1;mix-blend-mode:normal"
     transform="matrix(1.4112886,0,0,0.99593496,-3.2129606,0.82094354)"
     id="arc-group1">
    <path
       id="arc1-shadow"
       bx:shape="crescent 501.4 193.8 115.4 145 0.95 1@5009fb52"
       d="m 249.01658,489.24977 a 332.34366,250.86021 0 0 1 0,-478.499537 351.7918,265.54009 0 0 0 0,478.499537 z"
       style="stroke:#000000;stroke-width:1.96999002px;stroke-linejoin:round;paint-order:stroke" />
    <path
       id="arc1"
       bx:shape="crescent 501.4 193.8 115.4 145 0.95 1@5009fb52"
       d="m 249.00042,489.23346 a 343.46937,250.84309 0 0 1 0,-478.466907 363.56857,265.52199 0 0 0 0,478.466907 z"
       style="fill:#557799;stroke:#557799;stroke-width:2.00261998px;stroke-linejoin:round;paint-order:stroke" />
  </g>
  <g
     transform="matrix(1.0001097,0,0,0.97216259,-0.02275732,6.7640007)"
     id="arc-group2">
    <path
       id="arc2-shadow"
       bx:shape="crescent 501.4 193.8 115.4 145 0.95 1@5009fb52"
       d="m 324.34774,459.83128 a 320.08316,220.11946 0 0 1 0,-419.863579 338.81385,233.00044 0 0 0 0,419.863579 z"
       style="stroke:#000000;stroke-width:1.81097996px;stroke-linejoin:round;paint-order:stroke" />
    <path
       id="arc2"
       bx:shape="crescent 501.4 193.8 115.4 145 0.95 1@5009fb52"
       d="m 325.93339,460.00578 a 339.0704,220.19701 0 0 1 0,-420.011484 358.91219,233.08252 0 0 0 0,420.011484 z"
       style="fill:#557799;stroke:#557799;stroke-width:1.86424994px;stroke-linejoin:round;stroke-opacity:1;paint-order:stroke" />
  </g>
  <g
     transform="translate(0,-4.1015819)"
     id="arc-group3">
    <path
       id="arc3-shadow"
       bx:shape="crescent 501.4 193.8 115.4 145 0.95 1@5009fb52"
       d="m 302.11019,419.29693 a 193.72251,173.41684 0 0 1 0,-330.781293 205.0588,183.56488 0 0 0 0,330.781293 z"
       style="display:inline;stroke:#000000;stroke-width:1.25046003px;stroke-linejoin:round;paint-order:stroke" />
    <path
       id="arc3"
       bx:shape="crescent 501.4 193.8 115.4 145 0.95 1@5009fb52"
       d="m 302.08803,419.27488 a 207.62415,173.39371 0 0 1 0,-330.737257 219.77395,183.54039 0 0 0 0,330.737257 z"
       style="fill:#557799;stroke:#557799;stroke-width:1.29451001px;stroke-linejoin:round;paint-order:stroke" />
  </g>
  <g
     transform="matrix(1.0064988,0,0,1.0981478,30.896463,-24.812837)"
     id="text-group">
    <text
       id="shadow"
       y="253.53799"
       x="200"
       transform="matrix(6.349033,0,0,3.765942,-1090.731,-670.46833)"
       style="font-size:24.77099991px;font-family:Arial, sans-serif;white-space:pre">edb</text>
    <text
       id="text"
       y="253.53799"
       x="200"
       transform="matrix(6.349033,0,0,3.765942,-1092.8065,-673.74153)"
       style="font-size:24.77099991px;font-family:Arial, sans-serif;white-space:pre;fill:#989898">edb</text>
  </g>
</svg>
